<?xml version="1.0" encoding="UTF-8"?>
<svg width="65px" height="65px" viewBox="0 0 65 65" version="1.1" xmlns="http://www.w3.org/2000/svg" xmlns:xlink="http://www.w3.org/1999/xlink">
    <!-- Generator: Sketch 52.3 (67297) - http://www.bohemiancoding.com/sketch -->
    <title>Group 10 Copy 3</title>
    <desc>Created with Sketch.</desc>
    <g id="Page-1" stroke="none" stroke-width="1" fill="none" fill-rule="evenodd">
        <g id="Update-profile" transform="translate(-58.000000, -62.000000)">
            <g id="Group-10-Copy-3" transform="translate(58.526626, 62.491690)">
                <circle id="Oval-4" stroke="#6976F4" fill="#6976F4" cx="31.5949845" cy="32.1356475" r="31.5469578"></circle>
                <path d="M45.4227469,58.5968503 C46.6643029,57.8873323 45.7951936,55.7591803 45.9547849,54.3403452 C46.2739675,51.4140357 45.476011,48.7715333 43.1526912,46.8206603 C42.8156199,46.5370541 42.7979322,46.2886223 42.9930999,45.8984879 C44.11044,43.6284322 45.298531,41.3760643 46.2739675,39.0350569 C47.8700815,35.2575267 49.022998,31.391357 48.8278303,27.1881161 C48.6859267,24.2618065 46.7529424,21.5660401 44.0571759,20.856723 C42.1063029,20.3423727 40.4925012,20.8390353 39.2686329,22.4884135 C38.8075466,23.109091 38.3997245,23.7653449 38.0982296,24.4746619 C37.1051054,26.6914535 36.6261305,29.0503496 36.1296689,31.4267324 C35.4024632,34.9560318 35.118656,38.5030189 35.2251842,42.10327 C35.2428719,42.8835388 35.2251842,43.6816963 35.2251842,44.4089021 C34.0368923,44.3200616 32.8309126,44.178158 31.624933,44.178158 C30.4012657,44.178158 29.1775984,44.3377493 27.9360424,44.4265898 C27.9360424,44.3023739 27.9183547,44.1604703 27.9360424,44.0185667 C28.3617532,38.0951967 27.6168597,32.2958417 25.9674816,26.6205017 C25.5240831,25.0953394 24.9210933,23.6234413 23.8923927,22.3818853 C23.1298116,21.4597129 22.2432156,20.8034589 21.0372359,20.7148194 C17.6497799,20.4489009 14.6170627,23.3396341 14.4397033,26.9929484 C14.3332957,29.4758594 14.581627,31.8878186 15.2732764,34.2820902 C16.4615282,38.3257399 18.1463018,42.1565341 20.1858143,45.8275361 C20.380982,46.1822951 20.5405733,46.48379 20.1327512,46.8206603 C17.8093712,48.7538456 17.0822057,51.3430839 17.259545,54.2693934 C17.3482247,55.7945557 17.5610399,57.3199189 17.7916031,58.8450811 C17.809331,58.8097057 31.3411258,66.5597327 45.4227469,58.5968503 Z" id="Shape" fill="#FFFFFF" fill-rule="nonzero"></path>
                <path d="M31.5557902,62.285138 C48.2067508,62.285138 61.7052807,48.7868091 61.7052807,32.1356475 C61.7052807,15.4845461 48.2067508,1.98615693 31.5557902,1.98615693 C14.9046286,1.98615693 1.40623936,15.4845461 1.40623936,32.1356475 C1.40623936,48.7868091 14.9046286,62.285138 31.5557902,62.285138 Z" id="Shape" stroke="#FFFFFF" stroke-width="2"></path>
            </g>
        </g>
    </g>
</svg>